<?xml version="1.0" encoding="UTF-8" standalone="no"?>
<svg
   xmlns:dc="http://purl.org/dc/elements/1.1/"
   xmlns:cc="http://creativecommons.org/ns#"
   xmlns:rdf="http://www.w3.org/1999/02/22-rdf-syntax-ns#"
   xmlns:svg="http://www.w3.org/2000/svg"
   xmlns="http://www.w3.org/2000/svg"
   viewBox="0 0 135.16667 151.55333"
   height="151.55333"
   width="135.16667"
   xml:space="preserve"
   id="svg2"
   version="1.1"><metadata
     id="metadata8"><rdf:RDF><cc:Work
         rdf:about=""><dc:format>image/svg+xml</dc:format><dc:type
           rdf:resource="http://purl.org/dc/dcmitype/StillImage" /></cc:Work></rdf:RDF></metadata><defs
     id="defs6"><clipPath
       id="clipPath18"
       clipPathUnits="userSpaceOnUse"><path
         id="path16"
         d="M 0,113.665 H 101.375 V 0 H 0 Z" /></clipPath></defs><g
     transform="matrix(1.3333333,0,0,-1.3333333,0,151.55333)"
     id="g10"><g
       id="g12"><g
         clip-path="url(#clipPath18)"
         id="g14"><g
           transform="translate(23.5206,72.4164)"
           id="g20"><path
             id="path22"
             style="fill:#E05262;fill-opacity:1;fill-rule:nonzero;stroke:none"
             d="m 0,0 c -2.865,0 -5.187,2.323 -5.187,5.187 0,2.865 2.322,5.188 5.187,5.188 2.865,0 5.187,-2.323 5.187,-5.188 C 5.187,2.323 2.865,0 0,0 m -16.687,18.084 -6.834,-90.5 h 53.5 v 90.5 z" /></g><g
           transform="translate(72.6673,77.6039)"
           id="g24"><path
             id="path26"
             style="fill:#E05262;fill-opacity:1;fill-rule:nonzero;stroke:none"
             d="m 0,0 c 0,2.865 2.323,5.187 5.187,5.187 2.865,0 5.188,-2.322 5.188,-5.187 0,-2.865 -2.323,-5.187 -5.188,-5.187 C 2.323,-5.187 0,-2.865 0,0 m -24.792,12.896 v -90.5 h 53.5 l -6.833,90.5 z" /></g><g
           transform="translate(23.7151,78.1653)"
           id="g28"><path
             id="path30"
             style="fill:none;stroke:#E05262;stroke-width:4;stroke-linecap:round;stroke-linejoin:miter;stroke-miterlimit:10;stroke-dasharray:none;stroke-opacity:1"
             d="M 0,0 C 0,0 -1.667,33.5 27.167,33.5" /></g><g
           transform="translate(77.7039,78.1653)"
           id="g32"><path
             id="path34"
             style="fill:none;stroke:#E05262;stroke-width:4;stroke-linecap:round;stroke-linejoin:miter;stroke-miterlimit:10;stroke-dasharray:none;stroke-opacity:1"
             d="M 0,0 C 0,0 1.667,33.5 -27.167,33.5" /></g></g></g></g></svg>