<?xml version="1.0" encoding="utf-8"?>
<!-- Generator: Adobe Illustrator 16.0.1, SVG Export Plug-In . SVG Version: 6.00 Build 0)  -->
<!DOCTYPE svg PUBLIC "-//W3C//DTD SVG 1.1//EN" "http://www.w3.org/Graphics/SVG/1.1/DTD/svg11.dtd">
<svg version="1.1"
	 id="svg2" xmlns:dc="http://purl.org/dc/elements/1.1/" xmlns:rdf="http://www.w3.org/1999/02/22-rdf-syntax-ns#" xmlns:svg="http://www.w3.org/2000/svg" xmlns:cc="http://creativecommons.org/ns#"
	 xmlns="http://www.w3.org/2000/svg" xmlns:xlink="http://www.w3.org/1999/xlink" x="0px" y="0px" width="58.792px"
	 height="83.282px" viewBox="0.583 0.606 58.792 83.282" enable-background="new 0.583 0.606 58.792 83.282" xml:space="preserve">
<g id="g10" transform="matrix(1.3333333,0,0,-1.3333333,0,84.525067)">
	<g id="g12">
		<g>
			<defs>
				<rect id="SVGID_1_" x="-7.51" y="-10.566" width="60.084" height="84.525"/>
			</defs>
			<clipPath id="SVGID_2_">
				<use xlink:href="#SVGID_1_"  overflow="visible"/>
			</clipPath>
			<g id="g14" clip-path="url(#SVGID_2_)">
				<g id="g20" transform="translate(43.0631,39.4877)">
					<path id="path22" fill="#048BB6" d="M0,0c0-13.433-14.669-32.707-19.15-36.941c-0.771-0.729-1.966-0.729-2.737,0
						c-4.594,4.34-19.176,23.508-19.176,38.303c0,11.499,9.447,20.791,21.004,20.539C-8.535,21.649,0,11.527,0,0"/>
				</g>
				<g id="g24" transform="translate(43.0631,39.4877)">
					
						<path id="path26" fill="none" stroke="#048BB6" stroke-width="4" stroke-linecap="round" stroke-linejoin="round" stroke-miterlimit="10" d="
						M0,0c0-13.433-14.669-32.707-19.15-36.941c-0.771-0.729-1.966-0.729-2.737,0c-4.594,4.34-19.176,23.508-19.176,38.303
						c0,11.499,9.447,20.791,21.004,20.539C-8.535,21.649,0,11.527,0,0z"/>
				</g>
			</g>
		</g>
	</g>
</g>
<circle fill="#FFFFFF" stroke="#FFFFFF" stroke-miterlimit="10" cx="29.979" cy="28.429" r="13.833"/>
</svg>
