<?xml version="1.0" encoding="UTF-8" standalone="no"?>
<svg
   xmlns:dc="http://purl.org/dc/elements/1.1/"
   xmlns:cc="http://creativecommons.org/ns#"
   xmlns:rdf="http://www.w3.org/1999/02/22-rdf-syntax-ns#"
   xmlns:svg="http://www.w3.org/2000/svg"
   xmlns="http://www.w3.org/2000/svg"
   viewBox="0 0 68.1464 68.1464"
   height="68.1464"
   width="68.1464"
   xml:space="preserve"
   id="svg2"
   version="1.1"><metadata
     id="metadata8"><rdf:RDF><cc:Work
         rdf:about=""><dc:format>image/svg+xml</dc:format><dc:type
           rdf:resource="http://purl.org/dc/dcmitype/StillImage" /></cc:Work></rdf:RDF></metadata><defs
     id="defs6"><clipPath
       id="clipPath18"
       clipPathUnits="userSpaceOnUse"><path
         id="path16"
         d="M 0,51.11 H 51.11 V 0 H 0 Z" /></clipPath></defs><g
     transform="matrix(1.3333333,0,0,-1.3333333,0,68.1464)"
     id="g10"><g
       id="g12"><g
         clip-path="url(#clipPath18)"
         id="g14"><g
           transform="translate(9.5492,50.9875)"
           id="g20"><path
             id="path22"
             style="fill:#ffffff;fill-opacity:1;fill-rule:nonzero;stroke:none"
             d="m 0,0 c 1.301,0.357 2.006,-0.089 2.618,-1.062 2.045,-3.253 4.118,-6.489 6.106,-9.777 1.04,-1.719 0.993,-1.836 -0.387,-3.231 -1.426,-1.443 -2.891,-2.851 -4.39,-4.218 -0.776,-0.708 -1.112,-1.369 -0.457,-2.346 0.426,-0.634 0.691,-1.373 1.079,-2.035 1.389,-2.365 4.516,-5.953 6.36,-7.84 1.887,-1.844 5.475,-4.971 7.84,-6.36 0.662,-0.389 1.401,-0.654 2.035,-1.079 0.977,-0.656 1.638,-0.32 2.346,0.457 1.367,1.499 2.775,2.963 4.218,4.39 1.396,1.38 1.512,1.426 3.231,0.387 3.288,-1.988 6.524,-4.061 9.777,-6.106 0.973,-0.612 1.42,-1.317 1.062,-2.618 -0.56,-2.042 -0.688,-4.165 -2.503,-5.707 -2.366,-2.011 -5.005,-3.329 -8.075,-3.698 -1.377,-0.166 -2.779,-0.118 -3.529,-0.144 -5.799,0.704 -10.266,2.953 -14.387,5.936 -2.634,1.908 -6.538,5.479 -8.756,7.725 v -10e-4 c -0.013,0.013 -0.025,0.026 -0.038,0.039 -0.013,0.013 -0.026,0.025 -0.038,0.038 v 0 c -2.246,2.218 -5.817,6.122 -7.724,8.756 -2.984,4.12 -5.233,8.588 -5.937,14.387 0.026,0.749 -0.021,2.152 0.144,3.529 0.37,3.07 1.687,5.708 3.698,8.075 C -4.165,-0.689 -2.042,-0.561 0,0" /></g></g></g></g></svg>